<svg width="200" height="28" viewBox="0 0 200 28" fill="none" xmlns="http://www.w3.org/2000/svg">
<g clip-path="url(#clip0_3333_15)">
<path d="M66.674 26.6426H71.8081V0.809772H66.7016L66.674 26.6426Z" fill="#57B94A"/>
<path d="M97.2663 9.76409C96.8367 4.02407 92.0193 0 86.7558 0H84.8829C78.8537 0 74.3531 5.08724 74.3531 10.1414V14.5153C74.3531 17.3137 74.1024 19.8201 76.1214 22.7397C77.942 25.5244 81.1397 27.4386 84.8829 27.4386H86.7558C90.5485 27.4386 93.7243 25.4858 95.5201 22.7397C97.506 19.7017 97.2884 17.3412 97.2884 13.5706C97.2884 12.3091 97.3627 11.0283 97.2663 9.76409ZM92.1433 17.7021C92.1433 19.0627 91.3445 20.1286 90.3199 21.0155C89.2981 21.9024 88.133 22.3348 86.7558 22.3348H84.8829C83.5057 22.3348 82.3406 21.9024 81.3188 21.0155C80.2942 20.1286 79.4954 19.0655 79.4954 17.7021C79.4954 16.8647 79.4954 10.3508 79.4954 9.72553C79.4954 8.39519 80.2914 7.33202 81.3188 6.43411C82.3737 5.51416 84.0979 5.0597 85.8193 5.0597C87.5408 5.0597 89.265 5.51416 90.3199 6.43411C91.3473 7.33202 92.1433 8.39244 92.1433 9.72553C92.1433 10.1965 92.1433 17.0796 92.1433 17.7021Z" fill="#57B94A"/>
<path d="M61.6639 3.29693C60.0223 1.64709 58.0061 0.809772 55.6705 0.809772H43.5266H33.3522C31.347 0.809772 29.3226 1.18436 27.5185 2.07952C25.6373 3.01323 24.0646 4.50057 23.0758 6.35423C21.6215 9.07826 21.8666 11.3451 21.8666 13.7C21.8666 16.055 21.7922 18.1428 22.6654 20.2719C23.4366 22.1476 24.7642 23.7588 26.4691 24.8578C28.51 26.1716 30.9807 26.6619 33.3852 26.6619H39.935L39.9047 21.5939H33.3549C29.1215 21.5939 27.0144 19.1894 26.9483 16.2863H38.0841V11.2239H26.9483C27.0062 8.32909 29.1546 5.9163 33.3549 5.9163H43.5294V26.6619H48.6607V17.7158H55.6732C56.7447 17.7158 57.5902 18.5752 57.5902 19.6301L57.5958 26.6591H62.6499L62.6444 19.6273C62.6444 18.1152 62.2065 16.7491 61.3361 15.5537C64.7901 12.4441 65.2363 6.88582 61.6667 3.29418L61.6639 3.29693ZM58.0447 11.6453C57.3974 12.2926 56.6235 12.6066 55.6732 12.6066H48.6607V5.91354H55.5493C56.6207 5.91354 57.3644 6.2055 58.0392 6.89408C59.3613 8.24095 59.32 10.37 58.0447 11.6453Z" fill="#57B94A"/>
<path d="M112.478 0.812527H99.8581L99.8334 26.582H104.965V17.7186H112.556C117.166 17.7186 120.92 13.9314 120.92 9.27658C120.92 4.62176 117.158 0.812527 112.481 0.812527H112.478ZM112.478 12.6093H104.965V5.9163H112.379C116.949 5.9163 116.861 12.6093 112.478 12.6093Z" fill="#57B94A"/>
<path d="M183.273 0.812528H171.71C167.571 0.812528 164.144 4.42621 164.698 8.80283C165.097 12.0144 167.865 14.9395 171.815 14.9395C173.09 14.934 175.418 14.9312 176.698 14.9312C181.014 14.9312 181.141 21.5857 176.698 21.5857H162.095C162.089 17.1347 162.081 12.0447 162.076 10.5215C162.076 10.2158 162.067 9.91007 162.04 9.6071C161.789 7.03455 160.696 4.80355 158.795 2.96917C154.727 -0.952996 148.389 -0.928207 144.335 2.83145C140.151 6.7123 140.911 10.8383 140.914 16.5342C140.914 18.4898 140.914 20.0928 140.914 21.5746C131.748 21.5746 130.271 21.5884 129.916 21.5058H129.905C129.31 21.3047 128.655 20.6905 128.6 19.7926L128.594 0.812528H123.463V19.8367C123.388 22.77 126.19 26.6509 130.508 26.6509H140.911V26.6619H146.043V17.1126H156.972V26.6619H161.332H176.908C184.113 26.582 187.914 17.6387 182.634 12.3256C181.001 10.684 179.004 9.85223 176.698 9.85223C175.891 9.85223 171.573 9.84121 171.573 9.84121C169.127 9.67595 169.196 6.07054 171.573 5.90803C171.573 5.90803 183.097 5.89426 183.273 5.89426L187.611 5.89151V26.6591H192.718V5.89151H200V0.812528H183.273ZM156.972 11.9841H146.045C146.045 10.4361 145.811 8.35388 147.935 6.47818C150.012 4.64655 153.143 4.67134 155.206 6.61039C157.192 8.47507 156.969 10.4637 156.969 11.9841H156.972Z" fill="#57B94A"/>
<path d="M12.0612 9.84121L6.9354 9.8302C4.48956 9.66494 4.55841 6.05952 6.9354 5.89702L18.6606 5.86121V0.78223L7.07587 0.798756C2.93336 0.798756 -0.495778 4.40968 0.0578417 8.78906C0.457219 12.0006 3.22532 14.9257 7.17502 14.9257L12.0584 14.9174C16.3745 14.9174 16.5012 21.5719 12.0584 21.5719H0.724389V26.6564L12.2705 26.6509C19.4759 26.571 23.2768 17.6277 17.9968 12.3146C16.3635 10.673 14.3666 9.84121 12.0612 9.84121Z" fill="#57B94A"/>
</g>
<defs>
<clipPath id="clip0_3333_15">
<rect width="200" height="27.4386" fill="white"/>
</clipPath>
</defs>
</svg>
